<?xml version="1.0" encoding="UTF-8"?>
<!DOCTYPE svg PUBLIC "-//W3C//DTD SVG 1.1//EN" "http://www.w3.org/Graphics/SVG/1.1/DTD/svg11.dtd">
<!-- Creator: CorelDRAW X6 -->
<svg xmlns="http://www.w3.org/2000/svg" xml:space="preserve" width="2.88361in" height="2.87534in" version="1.1" style="shape-rendering:geometricPrecision; text-rendering:geometricPrecision; image-rendering:optimizeQuality; fill-rule:evenodd; clip-rule:evenodd"
viewBox="0 0 829 826"
 xmlns:xlink="http://www.w3.org/1999/xlink">
 <defs>
  <style type="text/css">
   <![CDATA[
    .str0 {stroke:#3E8B92;stroke-width:1.99584}
    .str1 {stroke:#CCCCCC;stroke-width:1.99584}
    .str2 {stroke:#F8CD3E;stroke-width:1.99584}
    .fil0 {fill:#3E8B92}
    .fil1 {fill:#CCCCCC}
    .fil2 {fill:#F8CD3E}
   ]]>
  </style>
 </defs>
 <g id="Layer_x0020_2">
  <metadata id="CorelCorpID_0Corel-Layer"/>
  <path class="fil0 str0" d="M413 1c76,2 41,89 86,95 51,7 56,-77 120,-40 65,37 -8,98 27,125 41,32 87,-38 124,26 45,79 -128,107 19,156 52,17 52,84 0,101 -15,5 -44,7 -59,34l0 0 0 1 0 -1c-1,60 77,57 40,121 -3,5 -6,9 -9,13 -17,-29 -34,-57 -51,-86 -35,-56 -71,-113 -105,-170 -4,-7 -8,-14 -12,-21 16,-38 17,-84 -11,-117 -45,-50 -118,-25 -158,18 -11,12 -21,27 -29,44 -55,8 -96,56 -96,113 0,63 51,114 114,114 38,0 72,-18 92,-46 32,42 62,86 93,129 13,19 26,38 40,57 -6,40 36,71 -19,103 -64,37 -61,-41 -121,-40l1 0 -2 0 1 0c-52,30 -11,95 -85,95 -74,0 -32,-65 -85,-95l2 0 -3 0 1 0c-60,-1 -57,77 -121,40 -64,-37 5,-73 -26,-125l1 1 -2 -2 1 1c-52,-30 -88,39 -125,-26 -2,-4 -4,-8 -6,-12 17,4 38,-1 60,-21 19,-17 43,-51 58,-73 28,-39 55,-79 82,-119 37,-56 74,-112 112,-167 5,-7 9,-13 14,-19 41,-2 84,-20 102,-59 27,-62 -26,-118 -82,-137 -5,-2 -10,-3 -16,-4 8,-6 19,-7 33,-7zm-357 467c-28,-7 -55,-7 -55,-55 0,-91 165,-29 61,-144 -36,-41 -2,-99 51,-87 74,15 84,5 69,-69 -10,-44 28,-74 63,-64 -2,4 -5,9 -7,14 -12,26 -8,54 6,78 -1,4 -2,8 -4,11 -31,56 -63,111 -95,166 -24,42 -48,83 -73,124 -5,9 -11,18 -16,26z"/>
  <path class="fil1 str1" d="M267 75c16,-35 69,-50 119,-33 51,17 79,59 63,94 -13,28 -49,43 -89,40 0,0 -12,16 -24,33 -57,82 -213,324 -247,354 -41,37 -57,-8 -33,-37 19,-24 163,-270 212,-359 7,-13 8,-27 8,-34 -13,-18 -17,-39 -9,-58z"/>
  <path class="fil2 str2" d="M428 399c-25,-28 -17,-83 19,-122 36,-38 86,-46 111,-18 20,23 19,63 -1,97 0,0 10,18 21,36 51,85 205,327 218,370 17,53 -30,48 -47,15 -14,-28 -177,-260 -237,-340 -9,-13 -22,-19 -28,-22 -22,4 -42,0 -56,-16z"/>
 </g>
</svg>
