<?xml version="1.0" encoding="UTF-8"?>
<!DOCTYPE svg PUBLIC "-//W3C//DTD SVG 1.1//EN" "http://www.w3.org/Graphics/SVG/1.1/DTD/svg11.dtd">
<!-- Creator: CorelDRAW X6 -->
<svg xmlns="http://www.w3.org/2000/svg" xml:space="preserve" width="2.99333in" height="2.99333in" version="1.1" style="shape-rendering:geometricPrecision; text-rendering:geometricPrecision; image-rendering:optimizeQuality; fill-rule:evenodd; clip-rule:evenodd"
viewBox="0 0 2993 2993"
 xmlns:xlink="http://www.w3.org/1999/xlink">
 <defs>
  <style type="text/css">
   <![CDATA[
    .str1 {stroke:white;stroke-width:6.94488}
    .str2 {stroke:white;stroke-width:140.02}
    .str0 {stroke:white;stroke-width:140.051}
    .fil0 {fill:none}
    .fil1 {fill:white}
    .fil2 {fill:white;fill-rule:nonzero}
   ]]>
  </style>
 </defs>
 <g id="Layer_x0020_2">
  <metadata id="CorelCorpID_0Corel-Layer"/>
  <circle class="fil0 str0" cx="1497" cy="1497" r="1427"/>
  <rect class="fil1 str1" x="578" y="1151" width="271" height="691"/>
  <polygon class="fil1 str1" points="932,1151 1497,630 1497,2363 932,1842 "/>
  <g>
   <path class="fil2" d="M1871 1497l140 0 0 0 0 15 -1 16 -1 16 -2 15 -2 15 -3 16 -3 15 -3 15 -4 15 -4 14 -5 15 -5 14 -6 15 -6 14 -6 13 -7 14 -8 14 -7 13 -8 13 -9 13 -8 12 -10 12 -9 12 -10 12 -10 11 -11 12 -11 10 -12 11 -11 10 -12 10 -13 10 -12 9 -81 -115 10 -7 9 -6 8 -8 9 -7 8 -8 8 -8 8 -8 7 -8 8 -9 7 -8 6 -9 7 -9 6 -10 6 -9 5 -10 6 -10 5 -9 4 -11 5 -10 4 -10 3 -11 4 -10 3 -11 3 -11 2 -11 3 -11 2 -11 1 -11 1 -11 1 -12 1 -11 0 -11 0 0zm-160 -307l81 -115 12 10 13 9 12 10 11 10 12 11 11 11 11 11 10 11 10 12 9 12 10 12 8 13 9 13 8 13 7 13 8 13 7 14 6 14 6 14 6 14 5 14 5 15 4 15 4 15 3 15 3 15 3 15 2 15 2 16 1 15 1 16 0 16 -140 0 0 -12 -1 -11 -1 -11 -1 -12 -1 -11 -2 -11 -3 -11 -2 -11 -3 -11 -3 -10 -4 -11 -3 -10 -4 -11 -5 -10 -4 -10 -5 -10 -6 -10 -5 -10 -6 -9 -6 -9 -7 -9 -6 -9 -7 -9 -8 -9 -7 -8 -8 -8 -8 -8 -8 -8 -9 -7 -8 -7 -9 -7 -10 -7z"/>
  </g>
  <path class="fil0 str2" d="M1945 2137c208,-147 333,-385 333,-640 0,-255 -125,-494 -333,-640"/>
 </g>
</svg>
