<?xml version="1.0" encoding="UTF-8"?>
<!DOCTYPE svg PUBLIC "-//W3C//DTD SVG 1.1//EN" "http://www.w3.org/Graphics/SVG/1.1/DTD/svg11.dtd">
<!-- Creator: CorelDRAW X6 -->
<svg xmlns="http://www.w3.org/2000/svg" xml:space="preserve" width="2.55595in" height="2.92837in" version="1.1" style="shape-rendering:geometricPrecision; text-rendering:geometricPrecision; image-rendering:optimizeQuality; fill-rule:evenodd; clip-rule:evenodd"
viewBox="0 0 655 751"
 xmlns:xlink="http://www.w3.org/1999/xlink">
 <defs>
  <style type="text/css">
   <![CDATA[
    .str0 {stroke:#CCCCCC;stroke-width:1.77995}
    .fil0 {fill:#CCCCCC}
   ]]>
  </style>
 </defs>
 <g id="Layer_x0020_4">
  <metadata id="CorelCorpID_0Corel-Layer"/>
  <path class="fil0 str0" d="M193 69c95,-55 178,-91 325,-51 109,29 122,128 -156,298 -316,192 -382,97 -356,0 32,-116 98,-195 187,-247zm132 -38c-9,10 -73,55 -98,69 -24,15 -81,37 -94,41 -33,12 -42,31 -1,20 41,-12 46,-10 54,-13 8,-3 -20,37 -44,71 -24,35 8,61 41,6 33,-54 40,-92 60,-97 19,-5 96,-7 137,-8 41,-2 40,-30 3,-29 -36,0 -93,9 -93,-3 0,-13 35,-32 49,-45 14,-13 7,-24 -14,-12z"/>
  <path class="fil0 str0" d="M248 405l30 58c45,-3 94,-26 136,-50 45,-26 86,-64 100,-99 -10,-19 -19,-36 -28,-53 -37,28 -76,54 -112,75 -37,23 -81,48 -126,69z"/>
  <path class="fil0 str0" d="M290 486l40 77c46,-2 94,-25 137,-50 44,-25 85,-64 99,-98 -17,-33 -22,-41 -38,-74 -23,34 -59,68 -100,92 -40,23 -89,45 -138,53z"/>
  <path class="fil0 str0" d="M342 587l40 78c46,-2 95,-26 137,-50 44,-25 86,-64 100,-98 -17,-34 -22,-41 -39,-75 -23,35 -59,69 -99,93 -40,23 -90,45 -139,52z"/>
  <path class="fil0 str0" d="M395 690c16,30 32,46 55,54 37,14 86,2 128,-23 44,-25 64,-60 75,-96 5,-18 -3,-47 -20,-80 -23,34 -59,68 -99,92 -40,23 -90,45 -139,53z"/>
 </g>
</svg>
