<?xml version="1.0" encoding="UTF-8"?>
<!DOCTYPE svg PUBLIC "-//W3C//DTD SVG 1.1//EN" "http://www.w3.org/Graphics/SVG/1.1/DTD/svg11.dtd">
<!-- Creator: CorelDRAW X6 -->
<svg xmlns="http://www.w3.org/2000/svg" xml:space="preserve" width="2.41267in" height="2.99285in" version="1.1" style="shape-rendering:geometricPrecision; text-rendering:geometricPrecision; image-rendering:optimizeQuality; fill-rule:evenodd; clip-rule:evenodd"
viewBox="0 0 596 740"
 xmlns:xlink="http://www.w3.org/1999/xlink">
 <defs>
  <style type="text/css">
   <![CDATA[
    .fil1 {fill:#30C4D6}
    .fil0 {fill:#85AF44}
   ]]>
  </style>
 </defs>
 <g id="Layer_x0020_2">
  <metadata id="CorelCorpID_0Corel-Layer"/>
  <path class="fil0" d="M291 53c-111,8 -226,37 -236,115 -15,110 153,74 267,101 57,13 106,69 145,62 43,-8 22,-100 63,-150 62,-77 -144,-134 -239,-128zm0 -53c134,-1 309,56 305,139 -7,177 -29,452 -72,503 -106,128 -330,135 -453,-7 -38,-45 -59,-325 -71,-499 -5,-69 141,-134 291,-136z"/>
  <path class="fil1" d="M293 79c-56,3 -203,20 -213,92 -1,10 -1,22 6,30 10,14 38,20 54,23 34,5 69,6 103,8 28,3 57,5 85,12 17,4 33,11 48,19 19,10 37,22 56,33 7,4 22,11 31,10 0,0 0,0 0,0 4,-3 8,-19 9,-23 4,-20 6,-40 11,-59 5,-21 13,-42 27,-59 3,-3 6,-9 6,-14 -2,-11 -23,-25 -32,-30 -25,-14 -56,-24 -85,-31 -32,-7 -73,-14 -106,-11z"/>
 </g>
</svg>
