<?xml version="1.0" encoding="UTF-8"?>
<!DOCTYPE svg PUBLIC "-//W3C//DTD SVG 1.1//EN" "http://www.w3.org/Graphics/SVG/1.1/DTD/svg11.dtd">
<!-- Creator: CorelDRAW X6 -->
<svg xmlns="http://www.w3.org/2000/svg" xml:space="preserve" width="2.8824in" height="2.50961in" version="1.1" style="shape-rendering:geometricPrecision; text-rendering:geometricPrecision; image-rendering:optimizeQuality; fill-rule:evenodd; clip-rule:evenodd"
viewBox="0 0 816 710"
 xmlns:xlink="http://www.w3.org/1999/xlink">
 <defs>
  <style type="text/css">
   <![CDATA[
    .str0 {stroke:#333333;stroke-width:1.9661}
    .str2 {stroke:#CCCCCC;stroke-width:1.9661}
    .str3 {stroke:#DC852C;stroke-width:1.9661}
    .str1 {stroke:#F8CD3E;stroke-width:1.9661}
    .fil1 {fill:#333333}
    .fil3 {fill:#CCCCCC}
    .fil4 {fill:#DC852C}
    .fil2 {fill:#F8CD3E}
    .fil0 {fill:black;fill-rule:nonzero}
   ]]>
  </style>
 </defs>
 <g id="Layer_x0020_3">
  <metadata id="CorelCorpID_0Corel-Layer"/>
  <g>
   <polygon class="fil0" points="692,488 676,465 693,452 708,440 722,428 734,416 744,404 753,393 761,382 768,371 774,360 778,350 782,340 784,330 786,321 787,312 788,303 788,295 787,287 786,279 785,272 783,265 781,259 779,253 777,247 774,242 772,238 770,234 768,230 766,228 765,226 763,224 763,223 763,223 784,205 785,206 786,207 787,209 789,212 792,215 794,220 797,224 800,230 802,236 805,242 808,250 810,257 812,266 814,275 815,284 816,294 816,304 815,315 814,326 812,337 808,348 804,360 799,373 792,385 785,397 776,410 766,423 754,436 741,449 726,462 710,475 "/>
  </g>
  <g>
   <path class="fil0" d="M280 659l-26 11 0 0 -2 -6 -2 -7 0 -7 0 -7 2 -6 2 -7 3 -6 3 -5 4 -6 4 -5 5 -5 5 -5 6 -5 6 -4 6 -4 6 -4 7 -4 7 -3 7 -3 8 -3 7 -3 8 -2 8 -2 8 -2 8 -2 8 -1 8 -1 8 0 8 -1 8 1 8 0 7 1 -4 28 -6 -1 -7 0 -6 0 -7 0 -7 0 -7 1 -6 1 -7 1 -7 2 -7 2 -7 2 -6 2 -7 3 -6 2 -6 3 -6 3 -5 4 -5 3 -5 4 -4 3 -4 4 -4 3 -3 4 -2 4 -3 3 -1 4 -1 3 -1 3 0 3 0 3 1 3 1 3 0 0zm176 -7l13 24 -5 3 -6 3 -6 2 -6 3 -6 3 -7 2 -7 3 -8 2 -7 2 -8 2 -7 2 -8 2 -8 1 -8 2 -8 1 -8 0 -8 1 -7 0 -8 0 -8 0 -7 0 -7 -1 -8 -2 -7 -2 -6 -2 -7 -3 -6 -3 -6 -4 -5 -5 -5 -5 -4 -6 -3 -7 26 -11 2 4 2 3 2 2 3 3 3 2 4 2 4 2 5 1 5 2 5 1 6 1 6 0 6 0 7 0 7 0 7 0 7 -1 7 -1 7 -1 7 -2 7 -1 7 -2 7 -2 7 -2 7 -2 6 -2 7 -3 6 -2 5 -2 5 -3 5 -2 5 -2z"/>
  </g>
  <g>
   <path class="fil0" d="M741 583l28 3 0 0 -1 5 -1 4 -2 4 -2 3 -2 4 -2 3 -3 3 -3 3 -3 3 -3 3 -4 3 -3 3 -4 3 -4 2 -3 3 -4 2 -4 2 -4 2 -4 2 -4 2 -4 2 -3 2 -4 1 -4 1 -3 2 -4 0 -3 1 -4 1 -3 0 -4 0 -4 -1 -4 -1 12 -26 -2 0 0 0 1 0 1 0 2 0 2 -1 2 0 2 -1 3 -1 3 -1 3 -2 3 -1 3 -2 4 -1 3 -2 3 -2 3 -2 4 -2 3 -2 3 -3 2 -2 3 -2 3 -2 2 -2 2 -2 2 -3 1 -1 1 -2 1 -2 1 -1 0 -1 0 -1 0 0zm-64 -42l7 -27 3 1 4 1 3 1 3 1 4 2 3 1 3 2 4 2 3 2 4 1 3 2 3 3 4 2 3 2 3 2 3 2 3 3 3 2 3 3 3 2 3 2 2 3 2 2 3 3 2 2 2 3 2 3 1 3 1 3 1 3 1 4 0 4 -28 -3 0 1 0 1 0 0 0 -1 -1 -1 0 -1 -1 -1 -2 -2 -1 -2 -2 -1 -2 -2 -2 -2 -2 -2 -2 -2 -3 -2 -3 -2 -2 -2 -3 -2 -3 -2 -3 -2 -3 -1 -3 -2 -2 -2 -3 -1 -3 -2 -3 -1 -3 -2 -3 -1 -2 -1 -2 -1 -3 0 -2 -1z"/>
  </g>
  <g>
   <path class="fil0" d="M361 214l-25 -13 0 0 2 -4 2 -3 3 -3 3 -4 3 -3 3 -4 4 -4 4 -4 4 -4 5 -4 5 -4 5 -4 5 -4 6 -4 6 -4 6 -4 6 -4 6 -4 7 -3 7 -4 7 -3 7 -3 8 -3 7 -3 8 -3 8 -2 7 -2 8 -1 9 -1 8 -1 8 -1 9 0 -1 28 -7 0 -7 1 -7 0 -7 1 -7 2 -6 1 -7 2 -7 2 -6 3 -7 2 -6 3 -7 3 -6 3 -6 4 -6 3 -5 4 -6 3 -5 4 -5 4 -5 3 -4 4 -5 4 -4 3 -4 4 -3 3 -3 3 -3 4 -3 2 -2 3 -2 3 -1 2 -1 1 0 0zm67 137l-19 21 -4 -4 -3 -3 -4 -3 -4 -4 -5 -3 -4 -4 -4 -4 -5 -4 -4 -4 -5 -4 -4 -4 -5 -4 -4 -5 -4 -5 -4 -4 -4 -5 -4 -6 -3 -5 -3 -6 -3 -6 -2 -6 -2 -6 -2 -6 -1 -7 0 -7 0 -7 1 -7 1 -8 2 -7 3 -8 3 -8 4 -7 25 13 -3 7 -3 5 -2 6 -1 5 -1 6 -1 5 0 4 0 5 1 4 1 5 1 4 2 4 2 5 2 4 3 4 3 4 3 4 3 4 4 4 3 4 4 4 4 4 4 3 5 4 4 4 4 4 4 3 5 4 4 3 4 4 4 4 4 3z"/>
  </g>
  <path class="fil1 str0" d="M312 482c0,0 -42,7 -47,-23 -4,-31 18,-38 18,-38l33 -15 13 39 -17 37z"/>
  <path class="fil2 str1" d="M691 321l0 307c0,39 -62,71 -139,71 -76,0 -138,-32 -138,-71l0 -165c93,-45 185,-94 277,-142zm-277 -6l0 -7c9,-39 28,-73 54,-96l8 4c25,12 59,23 87,22 14,-1 30,-3 45,-7 -65,28 -129,56 -194,84z"/>
  <path class="fil3 str2" d="M484 150l0 48c0,3 0,2 2,3 9,4 45,20 76,19 29,-1 55,-9 64,-13 3,-1 3,0 3,-3l0 -51c0,-3 0,-3 -2,-2 -8,2 -34,10 -65,11 -30,1 -63,-10 -74,-14 -5,-2 -4,-3 -4,2z"/>
  <path class="fil3 str2" d="M498 94l0 33c0,6 -1,5 5,7 11,4 36,12 58,11 20,-1 39,-5 48,-7 7,-1 6,0 6,-6l0 -36c0,-5 1,-4 -4,-2 -9,2 -28,6 -50,7 -24,0 -50,-8 -59,-11 -5,-1 -4,-2 -4,4z"/>
  <path class="fil3 str2" d="M489 4c16,4 95,54 98,63 2,5 11,21 6,30 -5,8 -20,3 -32,4 -6,0 -14,4 -17,-1 -3,-5 2,-13 -4,-17 -10,-7 -59,-33 -72,-41 -21,-14 -30,-52 21,-38z"/>
  <path class="fil4 str3" d="M328 424c2,-18 -18,-22 -36,-20 -30,3 -90,18 -110,21 0,-14 4,-64 4,-78 -11,0 -44,29 -55,29 2,-25 15,-73 17,-98 0,0 -147,112 -147,155 0,42 8,59 84,80 24,7 73,1 101,-11 31,-14 125,-57 142,-78z"/>
  <path class="fil3 str2" d="M767 194c16,-1 33,27 24,44 -156,78 -319,173 -479,244 3,-13 8,-29 4,-42 -6,-17 -18,-28 -39,-35 178,-77 325,-142 490,-211z"/>
 </g>
</svg>
